# xmcd
#
# Track frame offsets: 
#        150
#        10970
#        28291
#        50761
#        69454
#        90030
#        111121
#        126293
#        145771
#        165256
#        183599
#        208432
#        225653
#        242598
#        262682
#        287491
#        311639
#        331474
#
# Disc length: 4634 seconds
#
# Revision: 2
# Processed by: cddbd v1.5.2PL0 Copyright (c) Steve Scherf et al.
# Submitted via: ExactAudioCopy v0.99pb4
#
DISCID=fa121812
DTITLE=Various Artist - Salsa Coupole
DYEAR=1900
DGENRE=Salsa
TTITLE0=Oui Parle Français
TTITLE1=La Medicina Cubana
TTITLE2=Acid
TTITLE3=Juliana
TTITLE4=Mi Guajira
TTITLE5=Pan Con Bacalao
TTITLE6=Canallón
TTITLE7=Puro Dolor
TTITLE8=Pot Pourri III
TTITLE9=Cimarroneando Dos
TTITLE10=Hagamos El Chen
TTITLE11=El Tren
TTITLE12=Dímelo
TTITLE13=Qué Manera De Quererte
TTITLE14=La Murga
TTITLE15=Micaela
TTITLE16=El Negro Chombo
TTITLE17=Soy Tan Feliz
EXTD=
EXTT0=
EXTT1=
EXTT2=
EXTT3=
EXTT4=
EXTT5=
EXTT6=
EXTT7=
EXTT8=
EXTT9=
EXTT10=
EXTT11=
EXTT12=
EXTT13=
EXTT14=
EXTT15=
EXTT16=
EXTT17=
PLAYORDER=
